<svg id="e8qV0ZbnTPA1" xmlns="http://www.w3.org/2000/svg" xmlns:xlink="http://www.w3.org/1999/xlink" viewBox="0 0 32 32" shape-rendering="geometricPrecision" text-rendering="geometricPrecision" project-id="af00d73b41ee4a3f8398fcf10a9522c5" export-id="79db9d16d48e4743b61fc77a66b444e6" cached="false"><path d="M2,16C2,8.26801,8.26801,2,16,2s14,6.26801,14,14-6.26801,14-14,14-14-6.26801-14-14Zm8.8093-8C9.81004,8,9,8.7576,9,9.69215s.81004,1.69215,1.8093,1.69215s1.8093-.7576,1.8093-1.69215-.8101-1.69215-1.8093-1.69215ZM9.24742,22h3.09278v-9.3719h-3.09278v9.3719Zm8.07218-9.3719h-3.0928v9.3719h3.0928c0,0,0-2.9504,0-4.7951c0-1.1073.3781-2.2194,1.8866-2.2194c1.7048,0,1.6946,1.449,1.6866,2.5716-.0104,1.4673.0144,2.9648.0144,4.4429L24,22v-4.9463c-.0262-3.1583-.8492-4.6136-3.5567-4.6136-1.6079,0-2.6046.73-3.1237,1.3904v-1.2024Z" fill="#b3b3b3"/></svg>
