<svg id="efGYVUDdtM51" xmlns="http://www.w3.org/2000/svg" xmlns:xlink="http://www.w3.org/1999/xlink" viewBox="0 0 300 70" shape-rendering="geometricPrecision" text-rendering="geometricPrecision" project-id="a5925831a2144bb2a46d857571aaf73f" export-id="71e17a82d77e4a23b3f649ddc1e13933" cached="false"><defs><filter id="ePW8q6yuXB72-filter" x="-150%" width="400%" y="-150%" height="400%"><feGaussianBlur id="ePW8q6yuXB72-filter-blur-0" stdDeviation="0.1,0.1" result="result"/></filter></defs><g transform="translate(0-169.999999)"><g transform="translate(-13.374561 167.296111)" filter="url(#ePW8q6yuXB72-filter)"><g transform="matrix(.014676 0 0-.014676 229.885 49.8257)"><path d="M5074,3185c-20-19-30-22-40-14s-19,7-36-5c-12-9-30-16-40-16-20,0-85-42-104-68-7-9-14-32-14-51c0-35-21-60-51-61-28,0-79-71-79-110c0-16-4-20-19-15-21,6-33-7-35-39-1-12-9-22-21-25-30-5-62-42-70-81-4-19-11-39-15-45-9-12-21-89-26-165-2-30-6-82-8-115-3-33-8-94-11-135s-9-78-13-82c-5-5-28,6-53,24-92,67-120,77-190,68-35-5-98-18-139-30s-87-23-103-25c-15-2-32-7-36-10-5-3-31-8-58-11-28-3-69-18-99-36-50-30-52-32-42-61c8-20,7-31,0-36-6-4-14-43-18-86-6-73-4-82,16-108c13-16,33-32,45-37c19-7,23-15,21-47-3-44,25-107,54-123c15-8,18-15,11-28-11-21-4-42,15-42c8,0,14-3,15-7c0-5,1-28,3-51c1-31,7-47,21-55c10-5,29-21,41-34c28-30,115-93,129-93c5,0,28-14,49-30c22-17,44-30,48-30c5,0,28-13,51-28c23-16,50-31,60-35c9-4,17-14,17-23c0-50-34-214-51-246-15-27-18-47-13-77c6-37,4-41-19-46-14-4-30-4-35-1s-27-7-48-23c-24-17-52-28-72-28s-42-8-57-23c-14-13-26-22-28-19-2,2-14,21-27,41-14,21-28,38-32,38-5,0-8,11-8,25c0,13-5,37-12,52-13,30-142,163-158,163-6,0-34,37-63,83-29,45-70,96-90,114-19,17-33,33-31,36c3,3-2,21-10,41s-16,62-17,93c-1,32-8,73-16,91-7,17-20,62-27,100-8,37-17,74-21,83-6,16-65,49-88,49-8,0-52,105-107,253-51,138-102,269-112,290-11,22-42,100-69,174-54,146-71,178-103,195-12,6-91,38-176,71-197,76-270,85-261,34c1-5-7-11-18-14s-37-30-57-60c-30-46-35-60-30-91c10-58,8-73-8-91-20-22-26-59-14-90c6-17,5-27-3-32-16-9-20-37-8-44c5-4-1-19-12-34-17-23-19-36-13-62c4-19,9-39,10-45c7-38,26-82,140-320c14-27,28-75,33-105c9-55,40-143,66-190c8-14,28-64,45-110s35-88,40-94s25-55,44-108c20-54,45-111,56-126c27-39,82-188,85-232c1-21,12-47,24-60c13-14,19-29,15-39-4-8-9-32-12-52-3-26-9-36-20-36-10,0-36-7-59-15-52-19-132-8-204,29-26,13-54,24-63,24s-16,4-16,8c0,5-30,13-67,19-38,6-101,20-140,32-80,23-123,27-123,10c0-5-4-8-9-4-5,3-26-10-46-30l-37-34-81,11c-45,6-86,14-90,18-5,5,4,37,21,71c56,122,71,193,48,224-8,11-12,25-9,32s2,21-2,31c-4,9-8,34-10,54-1,21-8,45-16,54-7,9-12,35-10,60c1,24-3,53-9,63-16,31-56,71-70,71-7,0-10,3-7,7c12,12-15,33-43,33-15,0-61-15-101-34-41-18-85-37-99-41s-52-20-85-36c-51-25-63-36-78-72-9-24-19-52-22-63-4-19-50-147-103-289-16-43-34-81-40-83-5-1-13,11-17,27-4,17-11,31-16,31s-9,20-9,44c0,25-4,48-10,51-5,3-10,15-10,26c0,10-3,19-7,19-5,0-8,27-9,60c0,41-5,65-17,78-9,10-17,24-17,30c0,7-4,12-10,12-5,0-10,7-10,15c0,7-8,18-17,23-15,9-14,20,21,133c20,68,64,203,97,299c32,96,59,187,59,201c0,42-19,84-90,204-37,62-71,122-75,134-8,27-48,71-64,71-6,0-11,5-11,10c0,11-33,14-44,3-4-4-23-8-44-10-88-5-128-25-150-70-20-44-40-63-59-56-15,6-59-40-69-70-4-12-12-17-24-14s-22-3-29-19c-6-13-19-24-28-24-10,0-26-7-36-14-18-14-87-205-112-316-30-125-48-178-70-203-12-15-29-54-39-89-24-89-80-272-124-408-20-63-37-128-37-145-1-44-54-196-78-222-11-12-21-38-24-58-2-26-14-45-44-73-54-49-65-54-86-45-10,5-31,8-48,8h-30L2,253L0,0h3480h3480v395c0,393,0,394-21,406-12,6-39,9-61,6-21-3-49,0-62,6-12,7-48,12-79,12-48-1-57,2-57,17c0,10-5,18-11,18s-8,8-5,18c9,26-14,50-52,57-34,6-59,25-88,70-11,17-35,31-75,43-33,9-59,22-59,28c0,15-85,69-125,80-36,10-30,9-140,19-71,6-104,14-155,40-81,41-119,53-185,59-32,3-68,29-124,90-59,64-114,117-191,186-91,81-107,93-120,85-15-9-14-6,40,340c96,602,111,700,110,738c0,41-27,102-62,141-28,29-47,52-112,131-28,33-58,66-68,73s-18,20-18,28c0,18-76,94-94,94-8,0-21,7-30,15-13,14-18,12-42-10Z" fill="#0d0d0d"/></g><g transform="matrix(.014676 0 0-.014676-5.28085 49.8281)"><path d="M5074,3185c-20-19-30-22-40-14s-19,7-36-5c-12-9-30-16-40-16-20,0-85-42-104-68-7-9-14-32-14-51c0-35-21-60-51-61-28,0-79-71-79-110c0-16-4-20-19-15-21,6-33-7-35-39-1-12-9-22-21-25-30-5-62-42-70-81-4-19-11-39-15-45-9-12-21-89-26-165-2-30-6-82-8-115-3-33-8-94-11-135s-9-78-13-82c-5-5-28,6-53,24-92,67-120,77-190,68-35-5-98-18-139-30s-87-23-103-25c-15-2-32-7-36-10-5-3-31-8-58-11-28-3-69-18-99-36-50-30-52-32-42-61c8-20,7-31,0-36-6-4-14-43-18-86-6-73-4-82,16-108c13-16,33-32,45-37c19-7,23-15,21-47-3-44,25-107,54-123c15-8,18-15,11-28-11-21-4-42,15-42c8,0,14-3,15-7c0-5,1-28,3-51c1-31,7-47,21-55c10-5,29-21,41-34c28-30,115-93,129-93c5,0,28-14,49-30c22-17,44-30,48-30c5,0,28-13,51-28c23-16,50-31,60-35c9-4,17-14,17-23c0-50-34-214-51-246-15-27-18-47-13-77c6-37,4-41-19-46-14-4-30-4-35-1s-27-7-48-23c-24-17-52-28-72-28s-42-8-57-23c-14-13-26-22-28-19-2,2-14,21-27,41-14,21-28,38-32,38-5,0-8,11-8,25c0,13-5,37-12,52-13,30-142,163-158,163-6,0-34,37-63,83-29,45-70,96-90,114-19,17-33,33-31,36c3,3-2,21-10,41s-16,62-17,93c-1,32-8,73-16,91-7,17-20,62-27,100-8,37-17,74-21,83-6,16-65,49-88,49-8,0-52,105-107,253-51,138-102,269-112,290-11,22-42,100-69,174-54,146-71,178-103,195-12,6-91,38-176,71-197,76-270,85-261,34c1-5-7-11-18-14s-37-30-57-60c-30-46-35-60-30-91c10-58,8-73-8-91-20-22-26-59-14-90c6-17,5-27-3-32-16-9-20-37-8-44c5-4-1-19-12-34-17-23-19-36-13-62c4-19,9-39,10-45c7-38,26-82,140-320c14-27,28-75,33-105c9-55,40-143,66-190c8-14,28-64,45-110s35-88,40-94s25-55,44-108c20-54,45-111,56-126c27-39,82-188,85-232c1-21,12-47,24-60c13-14,19-29,15-39-4-8-9-32-12-52-3-26-9-36-20-36-10,0-36-7-59-15-52-19-132-8-204,29-26,13-54,24-63,24s-16,4-16,8c0,5-30,13-67,19-38,6-101,20-140,32-80,23-123,27-123,10c0-5-4-8-9-4-5,3-26-10-46-30l-37-34-81,11c-45,6-86,14-90,18-5,5,4,37,21,71c56,122,71,193,48,224-8,11-12,25-9,32s2,21-2,31c-4,9-8,34-10,54-1,21-8,45-16,54-7,9-12,35-10,60c1,24-3,53-9,63-16,31-56,71-70,71-7,0-10,3-7,7c12,12-15,33-43,33-15,0-61-15-101-34-41-18-85-37-99-41s-52-20-85-36c-51-25-63-36-78-72-9-24-19-52-22-63-4-19-50-147-103-289-16-43-34-81-40-83-5-1-13,11-17,27-4,17-11,31-16,31s-9,20-9,44c0,25-4,48-10,51-5,3-10,15-10,26c0,10-3,19-7,19-5,0-8,27-9,60c0,41-5,65-17,78-9,10-17,24-17,30c0,7-4,12-10,12-5,0-10,7-10,15c0,7-8,18-17,23-15,9-14,20,21,133c20,68,64,203,97,299c32,96,59,187,59,201c0,42-19,84-90,204-37,62-71,122-75,134-8,27-48,71-64,71-6,0-11,5-11,10c0,11-33,14-44,3-4-4-23-8-44-10-88-5-128-25-150-70-20-44-40-63-59-56-15,6-59-40-69-70-4-12-12-17-24-14s-22-3-29-19c-6-13-19-24-28-24-10,0-26-7-36-14-18-14-87-205-112-316-30-125-48-178-70-203-12-15-29-54-39-89-24-89-80-272-124-408-20-63-37-128-37-145-1-44-54-196-78-222-11-12-21-38-24-58-2-26-14-45-44-73-54-49-65-54-86-45-10,5-31,8-48,8h-30L2,253L0,0h3480h3480v395c0,393,0,394-21,406-12,6-39,9-61,6-21-3-49,0-62,6-12,7-48,12-79,12-48-1-57,2-57,17c0,10-5,18-11,18s-8,8-5,18c9,26-14,50-52,57-34,6-59,25-88,70-11,17-35,31-75,43-33,9-59,22-59,28c0,15-85,69-125,80-36,10-30,9-140,19-71,6-104,14-155,40-81,41-119,53-185,59-32,3-68,29-124,90-59,64-114,117-191,186-91,81-107,93-120,85-15-9-14-6,40,340c96,602,111,700,110,738c0,41-27,102-62,141-28,29-47,52-112,131-28,33-58,66-68,73s-18,20-18,28c0,18-76,94-94,94-8,0-21,7-30,15-13,14-18,12-42-10Z" fill="#0d0d0d"/></g><g transform="matrix(.014676 0 0-.014676 55.406 72.2601)"><path d="M5074,3185c-20-19-30-22-40-14s-19,7-36-5c-12-9-30-16-40-16-20,0-85-42-104-68-7-9-14-32-14-51c0-35-21-60-51-61-28,0-79-71-79-110c0-16-4-20-19-15-21,6-33-7-35-39-1-12-9-22-21-25-30-5-62-42-70-81-4-19-11-39-15-45-9-12-21-89-26-165-2-30-6-82-8-115-3-33-8-94-11-135s-9-78-13-82c-5-5-28,6-53,24-92,67-120,77-190,68-35-5-98-18-139-30s-87-23-103-25c-15-2-32-7-36-10-5-3-31-8-58-11-28-3-69-18-99-36-50-30-52-32-42-61c8-20,7-31,0-36-6-4-14-43-18-86-6-73-4-82,16-108c13-16,33-32,45-37c19-7,23-15,21-47-3-44,25-107,54-123c15-8,18-15,11-28-11-21-4-42,15-42c8,0,14-3,15-7c0-5,1-28,3-51c1-31,7-47,21-55c10-5,29-21,41-34c28-30,115-93,129-93c5,0,28-14,49-30c22-17,44-30,48-30c5,0,28-13,51-28c23-16,50-31,60-35c9-4,17-14,17-23c0-50-34-214-51-246-15-27-18-47-13-77c6-37,4-41-19-46-14-4-30-4-35-1s-27-7-48-23c-24-17-52-28-72-28s-42-8-57-23c-14-13-26-22-28-19-2,2-14,21-27,41-14,21-28,38-32,38-5,0-8,11-8,25c0,13-5,37-12,52-13,30-142,163-158,163-6,0-34,37-63,83-29,45-70,96-90,114-19,17-33,33-31,36c3,3-2,21-10,41s-16,62-17,93c-1,32-8,73-16,91-7,17-20,62-27,100-8,37-17,74-21,83-6,16-65,49-88,49-8,0-52,105-107,253-51,138-102,269-112,290-11,22-42,100-69,174-54,146-71,178-103,195-12,6-91,38-176,71-197,76-270,85-261,34c1-5-7-11-18-14s-37-30-57-60c-30-46-35-60-30-91c10-58,8-73-8-91-20-22-26-59-14-90c6-17,5-27-3-32-16-9-20-37-8-44c5-4-1-19-12-34-17-23-19-36-13-62c4-19,9-39,10-45c7-38,26-82,140-320c14-27,28-75,33-105c9-55,40-143,66-190c8-14,28-64,45-110s35-88,40-94s25-55,44-108c20-54,45-111,56-126c27-39,82-188,85-232c1-21,12-47,24-60c13-14,19-29,15-39-4-8-9-32-12-52-3-26-9-36-20-36-10,0-36-7-59-15-52-19-132-8-204,29-26,13-54,24-63,24s-16,4-16,8c0,5-30,13-67,19-38,6-101,20-140,32-80,23-123,27-123,10c0-5-4-8-9-4-5,3-26-10-46-30l-37-34-81,11c-45,6-86,14-90,18-5,5,4,37,21,71c56,122,71,193,48,224-8,11-12,25-9,32s2,21-2,31c-4,9-8,34-10,54-1,21-8,45-16,54-7,9-12,35-10,60c1,24-3,53-9,63-16,31-56,71-70,71-7,0-10,3-7,7c12,12-15,33-43,33-15,0-61-15-101-34-41-18-85-37-99-41s-52-20-85-36c-51-25-63-36-78-72-9-24-19-52-22-63-4-19-50-147-103-289-16-43-34-81-40-83-5-1-13,11-17,27-4,17-11,31-16,31s-9,20-9,44c0,25-4,48-10,51-5,3-10,15-10,26c0,10-3,19-7,19-5,0-8,27-9,60c0,41-5,65-17,78-9,10-17,24-17,30c0,7-4,12-10,12-5,0-10,7-10,15c0,7-8,18-17,23-15,9-14,20,21,133c20,68,64,203,97,299c32,96,59,187,59,201c0,42-19,84-90,204-37,62-71,122-75,134-8,27-48,71-64,71-6,0-11,5-11,10c0,11-33,14-44,3-4-4-23-8-44-10-88-5-128-25-150-70-20-44-40-63-59-56-15,6-59-40-69-70-4-12-12-17-24-14s-22-3-29-19c-6-13-19-24-28-24-10,0-26-7-36-14-18-14-87-205-112-316-30-125-48-178-70-203-12-15-29-54-39-89-24-89-80-272-124-408-20-63-37-128-37-145-1-44-54-196-78-222-11-12-21-38-24-58-2-26-14-45-44-73-54-49-65-54-86-45-10,5-31,8-48,8h-30L2,253L0,0h3480h3480v395c0,393,0,394-21,406-12,6-39,9-61,6-21-3-49,0-62,6-12,7-48,12-79,12-48-1-57,2-57,17c0,10-5,18-11,18s-8,8-5,18c9,26-14,50-52,57-34,6-59,25-88,70-11,17-35,31-75,43-33,9-59,22-59,28c0,15-85,69-125,80-36,10-30,9-140,19-71,6-104,14-155,40-81,41-119,53-185,59-32,3-68,29-124,90-59,64-114,117-191,186-91,81-107,93-120,85-15-9-14-6,40,340c96,602,111,700,110,738c0,41-27,102-62,141-28,29-47,52-112,131-28,33-58,66-68,73s-18,20-18,28c0,18-76,94-94,94-8,0-21,7-30,15-13,14-18,12-42-10Z" fill="#0d0d0d"/></g><g transform="matrix(-.000005 0.017634 0.017634 0.000005 170.537 24.1287)"><path d="M2796,5532c-16-2-39-16-52-32-13-15-42-35-63-43-22-9-42-21-46-27-3-5-19-10-36-10-16,0-29-4-29-8c0-13-39-28-106-42-32-6-70-19-84-29-20-14-39-17-88-13-54,4-68,1-92-17-16-11-34-21-40-21s-18-7-26-15c-10-10-35-15-68-15-51,0-53-1-76-42-21-40-58-80-88-97-7-4-15-25-19-47-8-55-19-64-73-64-28,0-52-6-59-14-6-8-31-17-55-20-24-4-53-16-64-26-12-11-26-20-31-20-6,0-24-24-41-53-28-50-34-55-85-67-45-11-56-18-64-41-6-19-19-29-40-34-16-3-56-23-88-44-32-20-79-48-105-61s-58-34-70-47-25-23-30-23-20-11-33-24c-14-14-31-29-38-33-20-12-67-85-67-104c0-11-15-21-47-29-60-16-73-26-73-56c0-12-4-26-10-29-5-3-10-17-10-31c0-27,1-27-87-45l-62-13l6-41c5-40,4-42-28-55-58-23-69-38-69-95c0-29-5-66-11-83-10-28-8-38,15-76c14-25,55-70,91-102l64-57-16-31c-8-17-23-40-33-51-19-22-46-180-37-216c3-11-1-43-10-72-9-30-12-66-9-89c4-21-1-71-9-111-19-92-19-105,9-146c16-25,37-39,72-51c42-14,49-21,52-46c2-16,14-43,27-60c19-25,34-33,74-38l51-7v-101-101l-35-38c-19-22-35-43-35-47c0-5-11-14-25-20-30-14-34-60-10-106c8-15,12-32,9-37-16-26-54-148-54-174c0-44-18-102-38-121-9-9-17-33-18-53-2-20-4-45-6-56-2-14,3-21,20-23c13-2,22-10,22-22c0-10,7-21,15-24c12-4,13-10,6-24-7-12-23-19-53-21-48-2-60-14-55-54c2-15-1-27-6-27-17,0-36-34-37-65c0-20,11-43,30-65c28-33,29-39,30-132c0-54-4-100-10-103-26-16,1-208,34-247c19-22,19-22-15-49-19-16-38-33-44-39-5-6-24-26-41-43-71-74-76-105-31-207c10-25,25-65,33-90c20-66,77-123,145-144c31-10,73-33,94-52c46-40,124-65,186-58c40,4,48,1,83-31c21-19,47-35,57-35s34-11,54-24c51-35,171-60,227-48c36,7,49,6,81-12c33-17,43-19,80-9c36,10,48,9,86-8s68-19,246-19c183,0,207,2,242,20c87,45,151,68,164,59c18-11,69-12,69-1c0,4,21,17,47,27c26,11,59,29,73,41s50,30,80,40s62,25,70,34s25,22,38,29c12,6,28,27,36,45s29,44,47,57c19,12,36,26,39,29s21,17,40,30c19,14,44,32,54,42c11,10,28,20,38,24c10,3,18,9,18,14c0,4,21,19,48,32c47,25,126,97,165,153c25,36,47,54,65,55c7,0,29,16,47,36c24,26,36,49,41,82c4,26,17,79,30,117c14,39,27,88,29,109c3,22,9,45,14,50c5,6,18,45,31,86c12,41,26,80,30,85c5,6,7,37,6,70-2,33,1,92,6,130c4,39,10,90,13,115c2,25,9,74,15,110c5,36,12,130,14,210c3,80,9,194,14,254c7,75,7,117-1,133-7,16-6,39,2,79c6,32,11,104,11,161c0,62,5,111,12,122c9,15,8,28-5,62-12,33-18,94-22,238-3,106-10,202-15,212-7,13-7,24,2,38c9,15,9,31,0,71-7,28-12,96-12,150c0,57-4,102-10,105-6,4-8,21-4,40c5,30-2,66-27,133-5,13-5,22,1,22s10,7,10,15c0,9,7,29,14,44c15,28,20,158,18,441c0,58,1,125,2,150c3,54-12,198-21,214-4,6-9,28-10,49-3,41-32,106-57,126-9,8-16,21-16,31s-7,23-15,30-15,18-15,25c0,8-33,48-72,89-64,67-99,115-139,192-11,22-112,77-164,90-17,4-48,15-70,24-45,20-96,28-139,22Z" fill="#0d0d0d"/></g><g transform="matrix(-.000005 0.017634 0.017634 0.000005 115.515 24.1574)"><path d="M2796,5532c-16-2-39-16-52-32-13-15-42-35-63-43-22-9-42-21-46-27-3-5-19-10-36-10-16,0-29-4-29-8c0-13-39-28-106-42-32-6-70-19-84-29-20-14-39-17-88-13-54,4-68,1-92-17-16-11-34-21-40-21s-18-7-26-15c-10-10-35-15-68-15-51,0-53-1-76-42-21-40-58-80-88-97-7-4-15-25-19-47-8-55-19-64-73-64-28,0-52-6-59-14-6-8-31-17-55-20-24-4-53-16-64-26-12-11-26-20-31-20-6,0-24-24-41-53-28-50-34-55-85-67-45-11-56-18-64-41-6-19-19-29-40-34-16-3-56-23-88-44-32-20-79-48-105-61s-58-34-70-47-25-23-30-23-20-11-33-24c-14-14-31-29-38-33-20-12-67-85-67-104c0-11-15-21-47-29-60-16-73-26-73-56c0-12-4-26-10-29-5-3-10-17-10-31c0-27,1-27-87-45l-62-13l6-41c5-40,4-42-28-55-58-23-69-38-69-95c0-29-5-66-11-83-10-28-8-38,15-76c14-25,55-70,91-102l64-57-16-31c-8-17-23-40-33-51-19-22-46-180-37-216c3-11-1-43-10-72-9-30-12-66-9-89c4-21-1-71-9-111-19-92-19-105,9-146c16-25,37-39,72-51c42-14,49-21,52-46c2-16,14-43,27-60c19-25,34-33,74-38l51-7v-101-101l-35-38c-19-22-35-43-35-47c0-5-11-14-25-20-30-14-34-60-10-106c8-15,12-32,9-37-16-26-54-148-54-174c0-44-18-102-38-121-9-9-17-33-18-53-2-20-4-45-6-56-2-14,3-21,20-23c13-2,22-10,22-22c0-10,7-21,15-24c12-4,13-10,6-24-7-12-23-19-53-21-48-2-60-14-55-54c2-15-1-27-6-27-17,0-36-34-37-65c0-20,11-43,30-65c28-33,29-39,30-132c0-54-4-100-10-103-26-16,1-208,34-247c19-22,19-22-15-49-19-16-38-33-44-39-5-6-24-26-41-43-71-74-76-105-31-207c10-25,25-65,33-90c20-66,77-123,145-144c31-10,73-33,94-52c46-40,124-65,186-58c40,4,48,1,83-31c21-19,47-35,57-35s34-11,54-24c51-35,171-60,227-48c36,7,49,6,81-12c33-17,43-19,80-9c36,10,48,9,86-8s68-19,246-19c183,0,207,2,242,20c87,45,151,68,164,59c18-11,69-12,69-1c0,4,21,17,47,27c26,11,59,29,73,41s50,30,80,40s62,25,70,34s25,22,38,29c12,6,28,27,36,45s29,44,47,57c19,12,36,26,39,29s21,17,40,30c19,14,44,32,54,42c11,10,28,20,38,24c10,3,18,9,18,14c0,4,21,19,48,32c47,25,126,97,165,153c25,36,47,54,65,55c7,0,29,16,47,36c24,26,36,49,41,82c4,26,17,79,30,117c14,39,27,88,29,109c3,22,9,45,14,50c5,6,18,45,31,86c12,41,26,80,30,85c5,6,7,37,6,70-2,33,1,92,6,130c4,39,10,90,13,115c2,25,9,74,15,110c5,36,12,130,14,210c3,80,9,194,14,254c7,75,7,117-1,133-7,16-6,39,2,79c6,32,11,104,11,161c0,62,5,111,12,122c9,15,8,28-5,62-12,33-18,94-22,238-3,106-10,202-15,212-7,13-7,24,2,38c9,15,9,31,0,71-7,28-12,96-12,150c0,57-4,102-10,105-6,4-8,21-4,40c5,30-2,66-27,133-5,13-5,22,1,22s10,7,10,15c0,9,7,29,14,44c15,28,20,158,18,441c0,58,1,125,2,150c3,54-12,198-21,214-4,6-9,28-10,49-3,41-32,106-57,126-9,8-16,21-16,31s-7,23-15,30-15,18-15,25c0,8-33,48-72,89-64,67-99,115-139,192-11,22-112,77-164,90-17,4-48,15-70,24-45,20-96,28-139,22Z" fill="#0d0d0d"/></g><g transform="matrix(-.000005 0.017634-.017569-.000005 147.595 24.1227)"><path d="M2796,5532c-16-2-39-16-52-32-13-15-42-35-63-43-22-9-42-21-46-27-3-5-19-10-36-10-16,0-29-4-29-8c0-13-39-28-106-42-32-6-70-19-84-29-20-14-39-17-88-13-54,4-68,1-92-17-16-11-34-21-40-21s-18-7-26-15c-10-10-35-15-68-15-51,0-53-1-76-42-21-40-58-80-88-97-7-4-15-25-19-47-8-55-19-64-73-64-28,0-52-6-59-14-6-8-31-17-55-20-24-4-53-16-64-26-12-11-26-20-31-20-6,0-24-24-41-53-28-50-34-55-85-67-45-11-56-18-64-41-6-19-19-29-40-34-16-3-56-23-88-44-32-20-79-48-105-61s-58-34-70-47-25-23-30-23-20-11-33-24c-14-14-31-29-38-33-20-12-67-85-67-104c0-11-15-21-47-29-60-16-73-26-73-56c0-12-4-26-10-29-5-3-10-17-10-31c0-27,1-27-87-45l-62-13l6-41c5-40,4-42-28-55-58-23-69-38-69-95c0-29-5-66-11-83-10-28-8-38,15-76c14-25,55-70,91-102l64-57-16-31c-8-17-23-40-33-51-19-22-46-180-37-216c3-11-1-43-10-72-9-30-12-66-9-89c4-21-1-71-9-111-19-92-19-105,9-146c16-25,37-39,72-51c42-14,49-21,52-46c2-16,14-43,27-60c19-25,34-33,74-38l51-7v-101-101l-35-38c-19-22-35-43-35-47c0-5-11-14-25-20-30-14-34-60-10-106c8-15,12-32,9-37-16-26-54-148-54-174c0-44-18-102-38-121-9-9-17-33-18-53-2-20-4-45-6-56-2-14,3-21,20-23c13-2,22-10,22-22c0-10,7-21,15-24c12-4,13-10,6-24-7-12-23-19-53-21-48-2-60-14-55-54c2-15-1-27-6-27-17,0-36-34-37-65c0-20,11-43,30-65c28-33,29-39,30-132c0-54-4-100-10-103-26-16,1-208,34-247c19-22,19-22-15-49-19-16-38-33-44-39-5-6-24-26-41-43-71-74-76-105-31-207c10-25,25-65,33-90c20-66,77-123,145-144c31-10,73-33,94-52c46-40,124-65,186-58c40,4,48,1,83-31c21-19,47-35,57-35s34-11,54-24c51-35,171-60,227-48c36,7,49,6,81-12c33-17,43-19,80-9c36,10,48,9,86-8s68-19,246-19c183,0,207,2,242,20c87,45,151,68,164,59c18-11,69-12,69-1c0,4,21,17,47,27c26,11,59,29,73,41s50,30,80,40s62,25,70,34s25,22,38,29c12,6,28,27,36,45s29,44,47,57c19,12,36,26,39,29s21,17,40,30c19,14,44,32,54,42c11,10,28,20,38,24c10,3,18,9,18,14c0,4,21,19,48,32c47,25,126,97,165,153c25,36,47,54,65,55c7,0,29,16,47,36c24,26,36,49,41,82c4,26,17,79,30,117c14,39,27,88,29,109c3,22,9,45,14,50c5,6,18,45,31,86c12,41,26,80,30,85c5,6,7,37,6,70-2,33,1,92,6,130c4,39,10,90,13,115c2,25,9,74,15,110c5,36,12,130,14,210c3,80,9,194,14,254c7,75,7,117-1,133-7,16-6,39,2,79c6,32,11,104,11,161c0,62,5,111,12,122c9,15,8,28-5,62-12,33-18,94-22,238-3,106-10,202-15,212-7,13-7,24,2,38c9,15,9,31,0,71-7,28-12,96-12,150c0,57-4,102-10,105-6,4-8,21-4,40c5,30-2,66-27,133-5,13-5,22,1,22s10,7,10,15c0,9,7,29,14,44c15,28,20,158,18,441c0,58,1,125,2,150c3,54-12,198-21,214-4,6-9,28-10,49-3,41-32,106-57,126-9,8-16,21-16,31s-7,23-15,30-15,18-15,25c0,8-33,48-72,89-64,67-99,115-139,192-11,22-112,77-164,90-17,4-48,15-70,24-45,20-96,28-139,22Z" fill="#0d0d0d"/></g><g transform="matrix(-.000005 0.017634-.017569-.000005 147.595 24.1227)"><path d="M2796,5532c-16-2-39-16-52-32-13-15-42-35-63-43-22-9-42-21-46-27-3-5-19-10-36-10-16,0-29-4-29-8c0-13-39-28-106-42-32-6-70-19-84-29-20-14-39-17-88-13-54,4-68,1-92-17-16-11-34-21-40-21s-18-7-26-15c-10-10-35-15-68-15-51,0-53-1-76-42-21-40-58-80-88-97-7-4-15-25-19-47-8-55-19-64-73-64-28,0-52-6-59-14-6-8-31-17-55-20-24-4-53-16-64-26-12-11-26-20-31-20-6,0-24-24-41-53-28-50-34-55-85-67-45-11-56-18-64-41-6-19-19-29-40-34-16-3-56-23-88-44-32-20-79-48-105-61s-58-34-70-47-25-23-30-23-20-11-33-24c-14-14-31-29-38-33-20-12-67-85-67-104c0-11-15-21-47-29-60-16-73-26-73-56c0-12-4-26-10-29-5-3-10-17-10-31c0-27,1-27-87-45l-62-13l6-41c5-40,4-42-28-55-58-23-69-38-69-95c0-29-5-66-11-83-10-28-8-38,15-76c14-25,55-70,91-102l64-57-16-31c-8-17-23-40-33-51-19-22-46-180-37-216c3-11-1-43-10-72-9-30-12-66-9-89c4-21-1-71-9-111-19-92-19-105,9-146c16-25,37-39,72-51c42-14,49-21,52-46c2-16,14-43,27-60c19-25,34-33,74-38l51-7v-101-101l-35-38c-19-22-35-43-35-47c0-5-11-14-25-20-30-14-34-60-10-106c8-15,12-32,9-37-16-26-54-148-54-174c0-44-18-102-38-121-9-9-17-33-18-53-2-20-4-45-6-56-2-14,3-21,20-23c13-2,22-10,22-22c0-10,7-21,15-24c12-4,13-10,6-24-7-12-23-19-53-21-48-2-60-14-55-54c2-15-1-27-6-27-17,0-36-34-37-65c0-20,11-43,30-65c28-33,29-39,30-132c0-54-4-100-10-103-26-16,1-208,34-247c19-22,19-22-15-49-19-16-38-33-44-39-5-6-24-26-41-43-71-74-76-105-31-207c10-25,25-65,33-90c20-66,77-123,145-144c31-10,73-33,94-52c46-40,124-65,186-58c40,4,48,1,83-31c21-19,47-35,57-35s34-11,54-24c51-35,171-60,227-48c36,7,49,6,81-12c33-17,43-19,80-9c36,10,48,9,86-8s68-19,246-19c183,0,207,2,242,20c87,45,151,68,164,59c18-11,69-12,69-1c0,4,21,17,47,27c26,11,59,29,73,41s50,30,80,40s62,25,70,34s25,22,38,29c12,6,28,27,36,45s29,44,47,57c19,12,36,26,39,29s21,17,40,30c19,14,44,32,54,42c11,10,28,20,38,24c10,3,18,9,18,14c0,4,21,19,48,32c47,25,126,97,165,153c25,36,47,54,65,55c7,0,29,16,47,36c24,26,36,49,41,82c4,26,17,79,30,117c14,39,27,88,29,109c3,22,9,45,14,50c5,6,18,45,31,86c12,41,26,80,30,85c5,6,7,37,6,70-2,33,1,92,6,130c4,39,10,90,13,115c2,25,9,74,15,110c5,36,12,130,14,210c3,80,9,194,14,254c7,75,7,117-1,133-7,16-6,39,2,79c6,32,11,104,11,161c0,62,5,111,12,122c9,15,8,28-5,62-12,33-18,94-22,238-3,106-10,202-15,212-7,13-7,24,2,38c9,15,9,31,0,71-7,28-12,96-12,150c0,57-4,102-10,105-6,4-8,21-4,40c5,30-2,66-27,133-5,13-5,22,1,22s10,7,10,15c0,9,7,29,14,44c15,28,20,158,18,441c0,58,1,125,2,150c3,54-12,198-21,214-4,6-9,28-10,49-3,41-32,106-57,126-9,8-16,21-16,31s-7,23-15,30-15,18-15,25c0,8-33,48-72,89-64,67-99,115-139,192-11,22-112,77-164,90-17,4-48,15-70,24-45,20-96,28-139,22Z" fill="#0d0d0d"/></g></g><rect width="300" height="53.883352" rx="0" ry="0" transform="matrix(1.12437 0 0 1-18.6555 216.121811)" fill="#0d0d0d" stroke-width="0"/></g></svg>
